<svg xmlns="http://www.w3.org/2000/svg" viewBox="0 0 640 480" role="img" aria-label="Keyboard illustration">
  <rect width="640" height="480" fill="#f8fafc"/>
  <rect x="90" y="150" width="460" height="180" rx="18" fill="#0f172a"/>
  <g fill="#1e293b">
    <rect x="120" y="180" width="34" height="24" rx="4"/>
    <rect x="164" y="180" width="34" height="24" rx="4"/>
    <rect x="208" y="180" width="34" height="24" rx="4"/>
    <rect x="252" y="180" width="34" height="24" rx="4"/>
    <rect x="296" y="180" width="34" height="24" rx="4"/>
    <rect x="340" y="180" width="34" height="24" rx="4"/>
    <rect x="384" y="180" width="34" height="24" rx="4"/>
    <rect x="428" y="180" width="34" height="24" rx="4"/>
    <rect x="120" y="216" width="56" height="24" rx="4"/>
    <rect x="186" y="216" width="34" height="24" rx="4"/>
    <rect x="230" y="216" width="34" height="24" rx="4"/>
    <rect x="274" y="216" width="34" height="24" rx="4"/>
    <rect x="318" y="216" width="34" height="24" rx="4"/>
    <rect x="362" y="216" width="34" height="24" rx="4"/>
    <rect x="406" y="216" width="56" height="24" rx="4"/>
    <rect x="120" y="252" width="300" height="24" rx="4"/>
  </g>
  <rect x="120" y="288" width="342" height="20" rx="8" fill="#0ea5e9"/>
</svg>
